<svg xmlns="http://www.w3.org/2000/svg" viewBox="0 0 144 144"><defs><style>.cls-1{fill:#6dbe45;}.cls-2{fill:#fff;}</style></defs><g id="Layer_2" data-name="Layer 2"><g id="Layer_3" data-name="Layer 3"><rect width="144" height="144" rx="45.17"/><path class="cls-1" d="M108.68,87l15-15-15-15-8.44,8.43H78.58V43.76L87,35.32l-15-15-15,15L65,43.38v22H43.76L35.32,57l-15,15,15,15L43.39,79H65v21.66L57,108.68l15,15,15-15-8.44-8.44V79h22ZM68.8,75.2h-27A7.55,7.55,0,0,1,40.43,77a7.22,7.22,0,1,1,0-10.21,7.14,7.14,0,0,1,1.39,2h27V41.27a7.38,7.38,0,0,1-1.61-1.21,7.22,7.22,0,1,1,10.21,0,7.12,7.12,0,0,1-2.2,1.5V75.2Z"/><path class="cls-2" d="M55.57,65.41H60.9L48,52.53a7.21,7.21,0,1,1,5.23-6.93,7.35,7.35,0,0,1-.5,2.62L65,60.52V55.73l-8.35-8.35V35.45H35.45V56.69H46.84Z"/><polygon class="cls-2" points="78.58 65.41 88.42 65.41 97.15 56.69 108.56 56.69 108.56 35.45 87.31 35.45 87.31 47.37 78.58 56.1 78.58 65.41"/><path class="cls-2" d="M65,83.48,52.87,95.64a7,7,0,0,1,.37,2.25,7.24,7.24,0,1,1-4.84-6.81L60.52,79H55.73l-8.36,8.35H35.45v21.24H56.69V97.15L65,88.8Z"/><polygon class="cls-2" points="88.27 78.96 78.58 78.96 78.58 88.43 87.31 97.16 87.31 108.56 108.56 108.56 108.56 87.31 96.62 87.31 88.27 78.96"/></g></g></svg>